# xmcd
#
# Track frame offsets:
#	150
#	26450
#	61202
#	91518
#	114591
#	134024
#	151008
#
# Disc length: 2289 seconds
#
# Revision: 1
# Processed by: cddbd v1.5.2PL0 Copyright (c) Steve Scherf et al.
# Submitted via: audiograbber 1.83.01
#
DISCID=4b08ef07
DTITLE=B. B. King, Big Mama Thornton, Muddy Waters - Live at Newport
DYEAR=1999
DGENRE=Blues
TTITLE0=Little Red Rooster (Thornton)
TTITLE1=Ball and Chain (Thornton)
TTITLE2=Outside Help (King)
TTITLE3=Long Distance Call (Waters)
TTITLE4=Where's My Woman Been (Waters)
TTITLE5=Got My Mojo Workin' (Waters)
TTITLE6=You Done Lost Your Good Thing Now (King)
EXTD=Golden Legends Series\nMCPS Catalog No. 449321-2
EXTT0=
EXTT1=
EXTT2=
EXTT3=
EXTT4=
EXTT5=
EXTT6=
PLAYORDER=
